<svg width="28" height="28" viewBox="0 0 28 28" fill="none" xmlns="http://www.w3.org/2000/svg">
<path d="M5.83333 11.6666V18.6796C5.83333 19.0984 5.83333 19.3078 5.8971 19.4926C5.95348 19.6561 6.04551 19.805 6.16651 19.9285C6.30334 20.0683 6.49063 20.1619 6.8652 20.3492L13.1652 23.4992C13.4713 23.6522 13.6243 23.7288 13.7849 23.7589C13.927 23.7855 14.0729 23.7855 14.2151 23.7589C14.3757 23.7288 14.5287 23.6522 14.8348 23.4992L21.1348 20.3492C21.5094 20.1619 21.6967 20.0683 21.8335 19.9285C21.9545 19.805 22.0465 19.6561 22.1029 19.4926C22.1667 19.3078 22.1667 19.0984 22.1667 18.6796V11.6666M2.33333 9.91658L13.5826 4.29195C13.7356 4.21542 13.8122 4.17716 13.8924 4.1621C13.9635 4.14877 14.0365 4.14877 14.1076 4.1621C14.1878 4.17716 14.2644 4.21542 14.4174 4.29195L25.6667 9.91658L14.4174 15.5412C14.2644 15.6177 14.1878 15.656 14.1076 15.6711C14.0365 15.6844 13.9635 15.6844 13.8924 15.6711C13.8122 15.656 13.7356 15.6177 13.5826 15.5412L2.33333 9.91658Z" stroke="white" stroke-width="1.5" stroke-linecap="round" stroke-linejoin="round"/>
</svg>
