<svg width="14" height="14" viewBox="0 0 14 14" fill="none" xmlns="http://www.w3.org/2000/svg">
<path d="M4.08307 11.2292V6.5625C4.08307 6.27194 4.08307 6.12666 4.0531 6.00702C3.96344 5.64909 3.68397 5.36962 3.32605 5.27997C3.20641 5.25 3.06113 5.25 2.77057 5.25C2.48001 5.25 2.33473 5.25 2.21509 5.27997C1.85716 5.36962 1.57769 5.64909 1.48804 6.00702C1.45807 6.12666 1.45807 6.27194 1.45807 6.5625V11.2292C1.45807 11.5197 1.45807 11.665 1.48804 11.7846C1.57769 12.1426 1.85716 12.422 2.21509 12.5117C2.33473 12.5417 2.48001 12.5417 2.77057 12.5417C3.06113 12.5417 3.20641 12.5417 3.32605 12.5117C3.68397 12.422 3.96344 12.1426 4.0531 11.7846C4.08307 11.665 4.08307 11.5197 4.08307 11.2292Z" fill="white"/>
<path d="M4.08307 2.77083C4.08307 3.49571 3.49544 4.08333 2.77057 4.08333C2.0457 4.08333 1.45807 3.49571 1.45807 2.77083C1.45807 2.04596 2.0457 1.45833 2.77057 1.45833C3.49544 1.45833 4.08307 2.04596 4.08307 2.77083Z" fill="white"/>
<path d="M6.89828 5.25H6.41642C5.86645 5.25 5.59146 5.25 5.42061 5.42085C5.24976 5.59171 5.24976 5.86669 5.24976 6.41667V11.375C5.24976 11.925 5.24976 12.2 5.42061 12.3708C5.59146 12.5417 5.86645 12.5417 6.41642 12.5417H6.7081C7.25807 12.5417 7.53305 12.5417 7.70391 12.3708C7.87476 12.2 7.87476 11.925 7.87477 11.375L7.87479 9.3334C7.87479 8.3669 8.18282 7.5834 9.09268 7.5834C9.54761 7.5834 9.9164 7.97515 9.9164 8.4584V11.0834C9.9164 11.6334 9.9164 11.9084 10.0873 12.0792C10.2581 12.2501 10.5331 12.2501 11.0831 12.2501H11.374C11.9239 12.2501 12.1988 12.2501 12.3696 12.0793C12.5405 11.9085 12.5405 11.6335 12.5407 11.0837L12.5415 7.87514C12.5415 6.42539 11.1626 5.25014 9.79786 5.25014C9.02096 5.25014 8.3278 5.63097 7.87479 6.22647C7.87478 5.85896 7.87477 5.67521 7.79493 5.53875C7.74437 5.45234 7.67242 5.38039 7.58601 5.32984C7.44955 5.25 7.26579 5.25 6.89828 5.25Z" fill="white"/>
</svg>
