<svg width="29" height="29" viewBox="0 0 29 29" fill="none" xmlns="http://www.w3.org/2000/svg">
<path d="M16.5156 4.51813L18.5687 8.65827C18.8486 9.2346 19.5952 9.7874 20.2252 9.89326L23.9464 10.5166C26.3262 10.9165 26.8861 12.6573 25.1713 14.3745L22.2783 17.2914C21.7883 17.7854 21.52 18.7381 21.6717 19.4203L22.4999 23.0312C23.1532 25.8893 21.6483 26.9949 19.1403 25.5011L15.6523 23.4193C15.0224 23.0429 13.9842 23.0429 13.3426 23.4193L9.85464 25.5011C7.35825 26.9949 5.84175 25.8775 6.49501 23.0312L7.32325 19.4203C7.4749 18.7381 7.2066 17.7854 6.71665 17.2914L3.82364 14.3745C2.12049 12.6573 2.66877 10.9165 5.04851 10.5166L8.76976 9.89326C9.38803 9.7874 10.1346 9.2346 10.4146 8.65827L12.4677 4.51813C13.5876 2.27163 15.4074 2.27163 16.5156 4.51813Z" stroke="white" stroke-width="1.5" stroke-linecap="round" stroke-linejoin="round"/>
</svg>
